<svg id="CSV" xmlns="http://www.w3.org/2000/svg" width="26" height="26" viewBox="0 0 26 26">
  <g id="Group_7763" data-name="Group 7763" transform="translate(4309.708 -5909.292)">
    <rect id="Rectangle_536" data-name="Rectangle 536" width="26" height="26" rx="5" transform="translate(-4309.708 5909.292)" fill="#e4f3eb"/>
    <path id="Union_20" data-name="Union 20" d="M1.413,18A1.474,1.474,0,0,1,0,16.474V12.04a.616.616,0,0,1,.282-.525V1.22A1.178,1.178,0,0,1,1.413,0h7.1L8.6.089l4.039,4.36.083.09V12.56a.618.618,0,0,1,.283.526v3.388A1.474,1.474,0,0,1,11.587,18Zm4.219-1.983a1.243,1.243,0,0,0,.179.324.875.875,0,0,0,.241.207,1.023,1.023,0,0,0,.537.157.962.962,0,0,0,.664-.214h0a.8.8,0,0,0,.241-.621.683.683,0,0,0-.241-.564,1.694,1.694,0,0,0-.515-.3,2.253,2.253,0,0,1-.367-.176.324.324,0,0,1-.11-.1.2.2,0,0,1-.032-.106.219.219,0,0,1,.1-.2.323.323,0,0,1,.1-.04.469.469,0,0,1,.11-.013.347.347,0,0,1,.263.1.755.755,0,0,1,.155.255l.5-.165a1.327,1.327,0,0,0-.167-.308.841.841,0,0,0-.21-.2.95.95,0,0,0-.537-.157.853.853,0,0,0-.594.214.689.689,0,0,0-.238.538.663.663,0,0,0,.2.516,2.056,2.056,0,0,0,.587.333,1.614,1.614,0,0,1,.343.183.271.271,0,0,1,.129.227.328.328,0,0,1-.031.152.24.24,0,0,1-.083.1.356.356,0,0,1-.12.05.661.661,0,0,1-.139.014.489.489,0,0,1-.181-.031.436.436,0,0,1-.141-.086.586.586,0,0,1-.109-.134,1.434,1.434,0,0,1-.088-.174Zm-.471.507a.908.908,0,0,0,.208-.228,1.628,1.628,0,0,0,.166-.347l-.508-.143a1.663,1.663,0,0,1-.078.161.625.625,0,0,1-.091.127.368.368,0,0,1-.121.082.421.421,0,0,1-.168.031.371.371,0,0,1-.359-.218,1.456,1.456,0,0,1-.118-.664c0-.054,0-.114,0-.181a1.69,1.69,0,0,1,.022-.2,1.3,1.3,0,0,1,.049-.2.744.744,0,0,1,.083-.172.409.409,0,0,1,.127-.122.38.38,0,0,1,.449.063.8.8,0,0,1,.149.278l.5-.128a1.576,1.576,0,0,0-.151-.384.644.644,0,0,0-.205-.222.977.977,0,0,0-.543-.153.877.877,0,0,0-.8.43,1.4,1.4,0,0,0-.172.449,2.644,2.644,0,0,0,0,1.042,1.413,1.413,0,0,0,.17.447.9.9,0,0,0,.313.313.921.921,0,0,0,.48.118A.947.947,0,0,0,5.161,16.524Zm3.123.144H8.86l.671-2.725H8.989l-.426,1.836-.408-1.836H7.615ZM.847,1.22V11.429H4.855a.549.549,0,0,1,.426.208l.678.838h6.193V4.97H9.243a1.178,1.178,0,0,1-1.13-1.22V.61h-6.7A.589.589,0,0,0,.847,1.22Zm1.6,8.9a.3.3,0,0,1-.282-.306V2.485a.3.3,0,0,1,.282-.305h4.24a.3.3,0,0,1,.282.305V5.842h3.582a.3.3,0,0,1,.283.305V9.81a.3.3,0,0,1-.283.306ZM6.97,9.5h3.3V8.284H6.97ZM2.73,9.5H6.4V8.284H2.73Zm0-1.83H6.4V6.454H2.73Zm4.239,0h3.3V6.453H6.97ZM2.73,5.844H6.4V4.624H2.73Zm0-1.831H6.4V2.792H2.73Z" transform="translate(-4302.708 5914.292)" fill="#0f6e4f"/>
  </g>
</svg>
