<svg xmlns="http://www.w3.org/2000/svg" width="104" height="104" viewBox="0 0 104 104">
  <g id="Group_7092" data-name="Group 7092" transform="translate(3153 1409)">
    <circle id="Ellipse_139" data-name="Ellipse 139" cx="52" cy="52" r="52" transform="translate(-3153 -1409)" fill="#ffeaea"/>
    <g id="Group_7089" data-name="Group 7089" transform="translate(0.628 -0.303)">
      <path id="Path_4380" data-name="Path 4380" d="M3,6H31.255" transform="translate(-3118.628 -1372.419)" fill="none" stroke="#fe3a3a" stroke-linecap="round" stroke-linejoin="round" stroke-width="2"/>
      <path id="Path_4381" data-name="Path 4381" d="M26.092,8.279V30.256a3.078,3.078,0,0,1-3.013,3.14H8.013A3.078,3.078,0,0,1,5,30.256V8.279m4.52,0V5.14A3.078,3.078,0,0,1,12.533,2h6.026a3.078,3.078,0,0,1,3.013,3.14v3.14" transform="translate(-3117.045 -1374.697)" fill="none" stroke="#fe3a3a" stroke-linecap="round" stroke-linejoin="round" stroke-width="2"/>
      <line id="Line_1" data-name="Line 1" y2="10.745" transform="translate(-3104.639 -1359.423)" fill="none" stroke="#fe3a3a" stroke-linecap="round" stroke-linejoin="round" stroke-width="2"/>
      <line id="Line_2" data-name="Line 2" y2="10.745" transform="translate(-3098.36 -1359.423)" fill="none" stroke="#fe3a3a" stroke-linecap="round" stroke-linejoin="round" stroke-width="2"/>
    </g>
  </g>
</svg>
