<svg id="PDF" xmlns="http://www.w3.org/2000/svg" width="26" height="26" viewBox="0 0 26 26">
  <rect id="Rectangle_536" data-name="Rectangle 536" width="26" height="26" rx="5" fill="#ffe6e6"/>
  <path id="Path_4857" data-name="Path 4857" d="M18.622,4.525a.832.832,0,0,0-.833.828V23.612a.832.832,0,0,0,.833.829H31.063a.832.832,0,0,0,.833-.829V10.334H26.5a.415.415,0,0,1-.415-.415V4.525H18.622Zm8.3.29V9.5h4.512ZM24.674,9.887a.831.831,0,0,1,.625.266c.476.518.286,1.62-.237,3.306A14.635,14.635,0,0,0,27.113,16.9a6.893,6.893,0,0,1,.988-.1,2.974,2.974,0,0,1,2.115.579.876.876,0,0,1,.266.973c-.177.444-.72.7-1.491.7a3.311,3.311,0,0,1-2.176-1.241,11.662,11.662,0,0,0-2.214.788c-.547.252-1.029.5-1.455.729a4.706,4.706,0,0,1-2.267,3,1.855,1.855,0,0,1-.816.23.807.807,0,0,1-.462-.13.691.691,0,0,1-.292-.65c.054-.671.94-1.762,3.159-3.022.129-.381.26-.8.4-1.267.1-.332.212-.682.332-1.053.148-.462.316-.953.477-1.428.171-.5.345-1.016.5-1.506a8.444,8.444,0,0,1-.553-1.954c-.149-1.213.374-1.53.7-1.611a1.361,1.361,0,0,1,.347-.044Zm-.006.829a.568.568,0,0,0-.139.02c-.049.012-.137.207-.076.705a5.024,5.024,0,0,0,.131.656c.273-1.142.122-1.363.107-1.381Zm.016,3.908q-.1.313-.218.646c-.16.471-.326.958-.473,1.414h0c-.118.368-.227.717-.329,1.046q-.074.236-.144.462.35-.174.734-.352a13.212,13.212,0,0,1,1.963-.734,14.733,14.733,0,0,1-1.533-2.482Zm3.482,3c-.106,0-.22.007-.341.017a1.936,1.936,0,0,0,1.167.575,1.052,1.052,0,0,0,.712-.166.586.586,0,0,0-.262-.209,2.81,2.81,0,0,0-1.276-.217Zm-6.207,2.41a5.057,5.057,0,0,0-1.784,1.671,1.493,1.493,0,0,0,.333-.127A3.133,3.133,0,0,0,21.959,20.035Z" transform="translate(-11.527 -1.525)" fill="#b61f1f"/>
</svg>
