<svg id="Transaction" xmlns="http://www.w3.org/2000/svg" width="31" height="31" viewBox="0 0 31 31">
  <rect id="Rectangle_536" data-name="Rectangle 536" width="31" height="31" rx="5" fill="#e4f3eb"/>
  <g id="Group_7281" data-name="Group 7281" transform="translate(4.5 2.993)">
    <path id="Path_4748" data-name="Path 4748" d="M0,0H22V22H0Z" fill="rgba(0,0,0,0)"/>
    <path id="Path_4749" data-name="Path 4749" d="M11,17H5.667A2.62,2.62,0,0,1,3,14.429V7.571A2.62,2.62,0,0,1,5.667,5H16.333A2.62,2.62,0,0,1,19,7.571v3.857" fill="rgba(0,0,0,0)" stroke="#2ca87f" stroke-linecap="round" stroke-linejoin="round" stroke-width="1.5"/>
    <path id="Path_4750" data-name="Path 4750" d="M3,10H19" transform="translate(0 -0.833)" fill="rgba(0,0,0,0)" stroke="#2ca87f" stroke-linecap="round" stroke-linejoin="round" stroke-width="1.5"/>
    <path id="Path_4751" data-name="Path 4751" d="M7,15h.01" transform="translate(-0.584 -1.25)" fill="rgba(0,0,0,0)" stroke="#2ca87f" stroke-linecap="round" stroke-linejoin="round" stroke-width="1.5"/>
    <path id="Path_4752" data-name="Path 4752" d="M11,15h2" transform="translate(-1 -1.25)" fill="rgba(0,0,0,0)" stroke="#2ca87f" stroke-linecap="round" stroke-linejoin="round" stroke-width="1.5"/>
    <path id="Path_4753" data-name="Path 4753" d="M16,19h6" transform="translate(-2 -1.583)" fill="rgba(0,0,0,0)" stroke="#2ca87f" stroke-linecap="round" stroke-linejoin="round" stroke-width="1.5"/>
    <path id="Path_4754" data-name="Path 4754" d="M19,16l-3,3,3,3" transform="translate(-2 -1.583)" fill="rgba(0,0,0,0)" stroke="#2ca87f" stroke-linecap="round" stroke-linejoin="round" stroke-width="1.5"/>
  </g>
</svg>
